/* XPM */
static char * b_menu_xpm[] = {
"11 13 4 1",
" 	c #000000000000",
".	c none s none",
"X	c grey76",
"o	c red",
"           ",
" oooooooooX",
"XXXXXXXXXXX",
"...........",
"           ",
" oooooooooX",
". oooooooX.",
".. oooooX..",
"... oooX...",
".... oX....",
".....X.....",
"...........",
"..........."};
