#define dropdown_width 13
#define dropdown_height 12
static char dropdown_bits[] = {
   0x00, 0x00, 0xff, 0x1f, 0xff, 0x1f, 0x00, 0x00, 0xff, 0x1f, 0xfe, 0x0f,
   0xfc, 0x07, 0xf8, 0x03, 0xf0, 0x01, 0xe0, 0x00, 0x40, 0x00, 0x00, 0x00};
